<?xml version="1.0" encoding="UTF-8"?>
<svg id="Layer_1" data-name="Layer 1" xmlns="http://www.w3.org/2000/svg" viewBox="0 0 1190.55 1190.55">
  <defs>
    <style>
      .cls-1 {
        fill: #ce5d46;
      }

      .cls-1, .cls-2, .cls-3, .cls-4, .cls-5, .cls-6 {
        opacity: .8;
      }

      .cls-2 {
        fill: #eaa25c;
      }

      .cls-7 {
        stroke-width: 27.25px;
      }

      .cls-7, .cls-8 {
        fill: none;
        stroke: #1e2c5a;
        stroke-linecap: round;
        stroke-linejoin: round;
      }

      .cls-9 {
        fill: rgba(226, 111, 171, .76);
      }

      .cls-10 {
        fill: rgba(234, 197, 107, .8);
      }

      .cls-3 {
        fill: #553677;
      }

      .cls-8 {
        stroke-width: 27.23px;
      }

      .cls-4 {
        fill: #ffdc8f;
      }

      .cls-11 {
        fill: #1e2c5a;
      }

      .cls-12 {
        fill: #2fbcd8;
      }

      .cls-5 {
        fill: #af2d77;
      }

      .cls-6 {
        fill: #a21d21;
      }
    </style>
  </defs>
  <circle class="cls-10" cx="678.93" cy="390.99" r="169.52"/>
  <circle class="cls-9" cx="361.62" cy="526.14" r="127.49"/>
  <circle class="cls-3" cx="382.72" cy="441.46" r="72.48"/>
  <circle class="cls-2" cx="611.67" cy="130.27" r="63.63"/>
  <circle class="cls-1" cx="765.15" cy="468.13" r="136.94"/>
  <circle class="cls-5" cx="584.17" cy="294.12" r="78.96"/>
  <circle class="cls-6" cx="511.14" cy="258.44" r="55.91"/>
  <circle class="cls-4" cx="890.4" cy="493.91" r="66.02"/>
  <g>
    <circle class="cls-12" cx="401.62" cy="860.53" r="151.34"/>
    <g>
      <path class="cls-7" d="m390.79,678.28c-18.92,14.72-26.91,38.48-21.28,59.84.63,2.38,11.75,42.17,43.25,43.16,16.83.52,33.71-10.21,43.25-26.47"/>
      <path class="cls-7" d="m327.99,629.19c-41.44,32.24-58.93,84.27-46.61,131.06,1.37,5.22,25.73,92.36,94.71,94.51,36.86,1.15,73.82-22.36,94.71-57.97"/>
      <path class="cls-7" d="m879.75,587.25c-9.39,31.89-5.51,54.9-2.01,67.41,4,14.29,14.99,41.75,38.23,66.41,13.24,14.04,24.28,20.64,24.15,33.2-.13,12.26-10.81,21.64-17.1,27.17-14.82,13.01-31.71,16.17-40.25,17.1"/>
      <path class="cls-7" d="m474.31,795.36c29.98,47.24,49.38,98.32,55.56,125.66,10.32,45.68,26.01,115.12-12.6,167.6-13.42,18.25-29.53,29.16-40.33,35.29"/>
      <path class="cls-7" d="m563.89,854.23c1.56,9.18,7.1,34.46,28.98,56.71,8.8,8.95,18.15,15.28,26.83,19.76,12.19,6.3,25.76,8.78,39.25,11.32,42.8,8.07,72.19,7.51,108.29,11.26,32.74,3.4,65.86-2.76,94.93-18.2.13-.07.25-.13.38-.2,13.39-7.14,19.41-10.76,23.49-15.39,2.65-3.01,4.1-5.7,6.76-11.07,3.69-7.46,7.68-40.5,10.89-55.41-10.65,3.27-25.43,6.41-43.07,5.96-25.18,0-44.43-14.56-56.32-22.53"/>
      <ellipse class="cls-11" cx="752.7" cy="674.4" rx="27.18" ry="56.34"/>
      <path class="cls-11" d="m662.01,436.44c8.81,0,17.03,2.52,24.66,7.58,7.63,5.07,14.09,12.63,19.38,22.69l28.4,54.03c3.3,6.28.88,14.04-5.39,17.35h0c-6.28,3.3-14.05.88-17.35-5.39l-26.6-50.61c-5.22-9.93-11.7-16.23-19.45-18.93-7.75-2.69-15.92-1.78-24.5,2.73-8.59,4.51-14,10.74-16.25,18.68-2.24,7.95-.76,16.88,4.46,26.81l26.6,50.61c3.3,6.28.88,14.05-5.39,17.35l-.2.11c-6.28,3.3-14.05.88-17.35-5.39l-46.27-88.05c-3.33-6.33-.89-14.17,5.44-17.5h0c6.34-3.33,14.17-.89,17.5,5.44l.63,1.21c1.36-6.53,4.29-12.61,8.79-18.23,4.5-5.61,10.03-10.15,16.61-13.61,8.72-4.58,17.49-6.88,26.3-6.89Z"/>
      <path class="cls-11" d="m513.67,461.39c8.81,0,17.03,2.52,24.66,7.58,7.63,5.07,14.09,12.63,19.38,22.69l28.4,54.03c3.3,6.28.88,14.04-5.39,17.35h0c-6.28,3.3-14.05.88-17.35-5.39l-26.6-50.61c-5.22-9.93-11.7-16.23-19.45-18.93-7.75-2.69-15.92-1.78-24.5,2.73-8.59,4.51-14,10.74-16.25,18.68-2.24,7.95-.76,16.88,4.46,26.81l26.6,50.61c3.3,6.28.88,14.05-5.39,17.35l-.2.11c-6.28,3.3-14.05.88-17.35-5.39l-46.27-88.05c-3.33-6.33-.89-14.17,5.44-17.5h0c6.34-3.33,14.17-.89,17.5,5.44l.63,1.21c1.36-6.53,4.29-12.61,8.79-18.23,4.5-5.61,10.03-10.15,16.61-13.61,8.72-4.58,17.49-6.88,26.3-6.89Z"/>
      <path class="cls-8" d="m575.92,553.83c15.68,24.33,18.09,30.59,37.06,31.22,19.71.66,26.39-10.75,27.67-12.46"/>
      <path class="cls-7" d="m722.46,525.87c3.79,4.49,31.11,35.78,72.42,34.13,43.52-1.74,74.21-38.91,83.24-73.25,10.64-40.45-3.66-96.39-45.78-111.54-36.94-13.29-73.25,12.74-77.41,15.82,12.08-2.08,53.73-10.57,64.93-39.12,15.57-39.73-36.62-95.82-88.23-114.87-47.78-17.64-120.32-12.85-146.5,33.3-13.57,23.91-9.95,50.58-6.66,64.93.3-6.91.45-30.04-15.82-46.61-3.64-3.71-15.96-15.09-47.45-16.65-57.72-2.85-119.55,30.32-155.65,81.57-14.55,20.65-31.78,45.12-22.47,69.09,10.83,27.9,49.5,34.27,54.1,34.96,13.97-30.89,11.95-41.67,7.49-45.78-11.43-10.56-54.03,8.72-77.41,39.95-4.25,5.67-32.22,44.42-17.48,92.39,10.83,35.26,40.57,61.98,77.41,69.92"/>
    </g>
  </g>
</svg>